#define queensi_width 32
#define queensi_height 32
static char queensi_bits[] = {
   0xff, 0xff, 0xff, 0xff, 0xff, 0xff, 0xff, 0xff, 0xff, 0x7f, 0xfe, 0xff,
   0xff, 0x7f, 0xfe, 0xff, 0xff, 0x0f, 0xf0, 0xff, 0xff, 0x0f, 0xf0, 0xff,
   0xff, 0x7f, 0xfe, 0xff, 0xff, 0x7f, 0xfe, 0xff, 0xff, 0x7f, 0xfe, 0xff,
   0xff, 0x0f, 0xf0, 0xff, 0xff, 0x37, 0xec, 0xff, 0xff, 0x19, 0x98, 0xff,
   0xff, 0x6e, 0x76, 0xff, 0x7f, 0x6f, 0xf6, 0xfe, 0xbf, 0x77, 0xee, 0xfd,
   0xdf, 0x77, 0xee, 0xfb, 0xdf, 0x77, 0xee, 0xfb, 0xef, 0x7b, 0xde, 0xf7,
   0xf7, 0x7b, 0xde, 0xef, 0xf7, 0x7b, 0xde, 0xef, 0xf7, 0x7d, 0xbe, 0xef,
   0xfb, 0x7d, 0xbe, 0xdf, 0xfb, 0x7d, 0xbe, 0xdf, 0xfb, 0x7d, 0xbe, 0xdf,
   0xfd, 0x7e, 0x7e, 0xbf, 0xfd, 0x7e, 0x7e, 0xbf, 0xfd, 0x7e, 0x7e, 0xbf,
   0x7d, 0x7e, 0x7e, 0xbe, 0x7d, 0x7f, 0xfe, 0xbe, 0x01, 0x00, 0x00, 0x80,
   0x01, 0x00, 0x00, 0x80, 0xff, 0xff, 0xff, 0xff};
