#define clock18_width 48
#define clock18_height 48
static char clock18_bits[] = {
   0x00, 0x00, 0x00, 0x00, 0x00, 0x00, 0x00, 0x00, 0x00, 0x00, 0x00, 0x00,
   0xf8, 0xff, 0xff, 0xff, 0xff, 0x7f, 0x08, 0x00, 0xfc, 0x7f, 0x00, 0x40,
   0x08, 0x00, 0xff, 0xff, 0x01, 0x40, 0x08, 0xc0, 0xff, 0xff, 0x07, 0x40,
   0x08, 0xe0, 0xff, 0xff, 0x0f, 0x40, 0x08, 0xf0, 0x8f, 0xe1, 0x1f, 0x40,
   0x08, 0xf8, 0x81, 0x01, 0x3f, 0x40, 0x08, 0x7c, 0x80, 0x01, 0x7c, 0x40,
   0x08, 0x3e, 0x03, 0x80, 0xf9, 0x40, 0x08, 0x1f, 0x03, 0x80, 0xf1, 0x41,
   0x88, 0x0f, 0x00, 0x00, 0xe0, 0x43, 0x88, 0x07, 0x00, 0x00, 0xc0, 0x47,
   0xc8, 0x03, 0x00, 0x00, 0x80, 0x47, 0xe8, 0x01, 0x00, 0x00, 0x00, 0x4f,
   0xe8, 0x0d, 0x00, 0x00, 0x60, 0x4f, 0xf8, 0x0c, 0x00, 0x00, 0x60, 0x5e,
   0xf8, 0x00, 0x00, 0x00, 0x00, 0x5e, 0xf8, 0x00, 0x00, 0x00, 0x00, 0x5e,
   0x78, 0x00, 0x00, 0x00, 0x00, 0x7c, 0x78, 0x00, 0x00, 0x00, 0x00, 0x7c,
   0x78, 0x00, 0x00, 0x00, 0x00, 0x7c, 0xf8, 0x03, 0x00, 0x00, 0x80, 0x7f,
   0xf8, 0x03, 0xc0, 0x03, 0x80, 0x7f, 0x78, 0x00, 0xc0, 0x03, 0x00, 0x7c,
   0x78, 0x00, 0xc0, 0x03, 0x00, 0x7c, 0x78, 0x00, 0xc0, 0x03, 0x00, 0x7c,
   0x78, 0x00, 0xc0, 0x03, 0x00, 0x5c, 0xf8, 0x00, 0xc0, 0x03, 0x00, 0x5e,
   0xf8, 0x00, 0xc0, 0x03, 0x00, 0x5e, 0xf8, 0x0c, 0xc0, 0x03, 0x60, 0x5e,
   0xe8, 0x0d, 0xc0, 0x03, 0x60, 0x4f, 0xe8, 0x01, 0xc0, 0x03, 0x00, 0x4f,
   0xc8, 0x03, 0xc0, 0x03, 0x80, 0x47, 0xc8, 0x07, 0xc0, 0x03, 0xc0, 0x47,
   0x88, 0x0f, 0xc0, 0x03, 0xe0, 0x43, 0x08, 0x1f, 0xc3, 0x83, 0xf1, 0x41,
   0x08, 0x3e, 0x03, 0x80, 0xf9, 0x40, 0x08, 0x7c, 0x80, 0x01, 0x7c, 0x40,
   0x08, 0xf8, 0x81, 0x01, 0x3f, 0x40, 0x08, 0xf0, 0x8f, 0xe1, 0x1f, 0x40,
   0x08, 0xe0, 0xff, 0xff, 0x0f, 0x40, 0x08, 0xc0, 0xff, 0xff, 0x07, 0x40,
   0x08, 0x00, 0xff, 0xff, 0x01, 0x40, 0x08, 0x00, 0xf8, 0x3f, 0x00, 0x40,
   0xf8, 0xff, 0xff, 0xff, 0xff, 0x7f, 0x00, 0x00, 0x00, 0x00, 0x00, 0x00};
