#define clock19_width 48
#define clock19_height 48
static char clock19_bits[] = {
   0x00, 0x00, 0x00, 0x00, 0x00, 0x00, 0x00, 0x00, 0x00, 0x00, 0x00, 0x00,
   0xf8, 0xff, 0xff, 0xff, 0xff, 0x3f, 0x08, 0x00, 0xfc, 0x7f, 0x00, 0x20,
   0x08, 0x00, 0xff, 0xff, 0x01, 0x20, 0x08, 0xc0, 0xff, 0xff, 0x07, 0x20,
   0x08, 0xe0, 0xff, 0xff, 0x0f, 0x20, 0x08, 0xf0, 0x8f, 0xe1, 0x1f, 0x20,
   0x08, 0xf8, 0x81, 0x01, 0x3f, 0x20, 0x08, 0x7c, 0x80, 0x01, 0x7c, 0x20,
   0x08, 0x3e, 0x03, 0x80, 0xf9, 0x20, 0x08, 0x1f, 0x03, 0x80, 0xf1, 0x21,
   0x88, 0x0f, 0x00, 0x00, 0xe0, 0x23, 0x88, 0x07, 0x00, 0x00, 0xc0, 0x27,
   0xc8, 0x03, 0x00, 0x00, 0x80, 0x27, 0xe8, 0x01, 0x00, 0x00, 0x00, 0x2f,
   0xe8, 0x0d, 0x00, 0x00, 0x60, 0x2f, 0xf8, 0x0c, 0x00, 0x00, 0x60, 0x3e,
   0xf8, 0x00, 0x00, 0x00, 0x00, 0x3e, 0xf8, 0x00, 0x00, 0x00, 0x00, 0x3e,
   0x78, 0x00, 0x00, 0x00, 0x00, 0x3c, 0x78, 0x00, 0x00, 0x00, 0x00, 0x3c,
   0x78, 0x00, 0x00, 0x00, 0x00, 0x3c, 0xf8, 0x03, 0x00, 0x00, 0x80, 0x3f,
   0xf8, 0x03, 0x80, 0x03, 0x80, 0x3f, 0x78, 0x00, 0xc0, 0x03, 0x00, 0x3c,
   0x78, 0x00, 0xc0, 0x01, 0x00, 0x3c, 0x78, 0x00, 0xe0, 0x01, 0x00, 0x3c,
   0x78, 0x00, 0xe0, 0x00, 0x00, 0x3c, 0xf8, 0x00, 0xf0, 0x00, 0x00, 0x3e,
   0xf8, 0x00, 0x78, 0x00, 0x00, 0x3e, 0xf8, 0x0c, 0x38, 0x00, 0x60, 0x3e,
   0xe8, 0x0d, 0x3c, 0x00, 0x60, 0x2f, 0xe8, 0x01, 0x1c, 0x00, 0x00, 0x2f,
   0xc8, 0x03, 0x0e, 0x00, 0x80, 0x27, 0xc8, 0x07, 0x0e, 0x00, 0xc0, 0x27,
   0x88, 0x0f, 0x00, 0x00, 0xe0, 0x23, 0x08, 0x1f, 0x03, 0x80, 0xf1, 0x21,
   0x08, 0x3e, 0x03, 0x80, 0xf9, 0x20, 0x08, 0x7c, 0x80, 0x01, 0x7c, 0x20,
   0x08, 0xf8, 0x81, 0x01, 0x3f, 0x20, 0x08, 0xf0, 0x8f, 0xe1, 0x1f, 0x20,
   0x08, 0xe0, 0xff, 0xff, 0x0f, 0x20, 0x08, 0xc0, 0xff, 0xff, 0x07, 0x20,
   0x08, 0x00, 0xff, 0xff, 0x01, 0x20, 0x08, 0x00, 0xf8, 0x3f, 0x00, 0x20,
   0xf8, 0xff, 0xff, 0xff, 0xff, 0x3f, 0x00, 0x00, 0x00, 0x00, 0x00, 0x00};
