#define clock16_width 48
#define clock16_height 48
static char clock16_bits[] = {
   0x00, 0x00, 0x00, 0x00, 0x00, 0x00, 0xfc, 0xff, 0xff, 0xff, 0xff, 0x7f,
   0x04, 0x00, 0xf0, 0x0f, 0x00, 0x40, 0x04, 0x00, 0xfe, 0xff, 0x00, 0x40,
   0x04, 0x80, 0xff, 0xff, 0x03, 0x40, 0x04, 0xe0, 0xff, 0xff, 0x0f, 0x40,
   0x04, 0xf0, 0x8f, 0xe1, 0x1f, 0x40, 0x04, 0xf8, 0x81, 0x01, 0x3f, 0x40,
   0x04, 0x7c, 0x80, 0x01, 0x7c, 0x40, 0x04, 0x3e, 0x03, 0x80, 0xf9, 0x40,
   0x04, 0x1f, 0x03, 0x80, 0xf1, 0x41, 0x84, 0x0f, 0x00, 0x00, 0xe0, 0x43,
   0xc4, 0x07, 0x00, 0x00, 0xc0, 0x47, 0xe4, 0x03, 0x00, 0x00, 0x80, 0x4f,
   0xe4, 0x01, 0x00, 0x00, 0x00, 0x4f, 0xf4, 0x0d, 0x00, 0x00, 0x60, 0x5f,
   0xf4, 0x0c, 0x00, 0x00, 0x60, 0x5e, 0xfc, 0x00, 0x00, 0x00, 0x00, 0x5e,
   0xfc, 0x00, 0x00, 0x00, 0x00, 0x7e, 0x7c, 0x00, 0x00, 0x00, 0x00, 0x7c,
   0x7c, 0x00, 0x00, 0x00, 0x00, 0x7c, 0x7c, 0x00, 0x00, 0x00, 0x00, 0x7c,
   0x7c, 0x00, 0x00, 0x03, 0x00, 0x7c, 0xfc, 0x03, 0x00, 0x0f, 0x80, 0x7f,
   0xfc, 0x03, 0x00, 0x3f, 0x80, 0x7f, 0x7c, 0x00, 0x00, 0x7e, 0x00, 0x7c,
   0x7c, 0x00, 0x00, 0xf8, 0x01, 0x7c, 0x7c, 0x00, 0x00, 0xe0, 0x03, 0x7c,
   0xfc, 0x00, 0x00, 0xc0, 0x0f, 0x7e, 0xfc, 0x00, 0x00, 0x00, 0x0f, 0x5e,
   0xf4, 0x0c, 0x00, 0x00, 0x6c, 0x5e, 0xf4, 0x0d, 0x00, 0x00, 0x60, 0x5f,
   0xe4, 0x01, 0x00, 0x00, 0x00, 0x4f, 0xe4, 0x03, 0x00, 0x00, 0x80, 0x4f,
   0xc4, 0x07, 0x00, 0x00, 0xc0, 0x47, 0x84, 0x0f, 0x00, 0x00, 0xe0, 0x43,
   0x04, 0x1f, 0x03, 0x80, 0xf1, 0x41, 0x04, 0x3e, 0x03, 0x80, 0xf9, 0x40,
   0x04, 0x7c, 0x80, 0x01, 0x7c, 0x40, 0x04, 0xf8, 0x81, 0x01, 0x3f, 0x40,
   0x04, 0xf0, 0x8f, 0xe1, 0x1f, 0x40, 0x04, 0xc0, 0xff, 0xff, 0x0f, 0x40,
   0x04, 0x80, 0xff, 0xff, 0x03, 0x40, 0x04, 0x00, 0xfe, 0xff, 0x00, 0x40,
   0x04, 0x00, 0xe0, 0x0f, 0x00, 0x40, 0xfc, 0xff, 0xff, 0xff, 0xff, 0x7f,
   0x00, 0x00, 0x00, 0x00, 0x00, 0x00, 0x00, 0x00, 0x00, 0x00, 0x00, 0x00};
