#define clock15_width 48
#define clock15_height 48
static char clock15_bits[] = {
   0x00, 0x00, 0x00, 0x00, 0x00, 0x00, 0xfc, 0xff, 0xff, 0xff, 0xff, 0x3f,
   0x04, 0x00, 0xf0, 0x0f, 0x00, 0x20, 0x04, 0x00, 0xfe, 0xff, 0x00, 0x20,
   0x04, 0x80, 0xff, 0xff, 0x03, 0x20, 0x04, 0xe0, 0xff, 0xff, 0x0f, 0x20,
   0x04, 0xf0, 0x8f, 0xe1, 0x1f, 0x20, 0x04, 0xf8, 0x81, 0x01, 0x3f, 0x20,
   0x04, 0x7c, 0x80, 0x01, 0x7c, 0x20, 0x04, 0x3e, 0x03, 0x80, 0xf9, 0x20,
   0x04, 0x1f, 0x03, 0x80, 0xf1, 0x21, 0x84, 0x0f, 0x00, 0x00, 0xe0, 0x23,
   0xc4, 0x07, 0x00, 0x00, 0xc0, 0x27, 0xe4, 0x03, 0x00, 0x00, 0x80, 0x2f,
   0xe4, 0x01, 0x00, 0x00, 0x00, 0x2f, 0xf4, 0x0d, 0x00, 0x00, 0x60, 0x3f,
   0xf4, 0x0c, 0x00, 0x00, 0x60, 0x3e, 0xfc, 0x00, 0x00, 0x00, 0x00, 0x3e,
   0xfc, 0x00, 0x00, 0x00, 0x00, 0x3e, 0x7c, 0x00, 0x00, 0x00, 0x00, 0x3c,
   0x7c, 0x00, 0x00, 0x00, 0x00, 0x3c, 0x7c, 0x00, 0x00, 0x00, 0x00, 0x3c,
   0x7c, 0x00, 0x00, 0xff, 0x3f, 0x3c, 0xfc, 0x03, 0x00, 0xff, 0xbf, 0x3f,
   0xfc, 0x03, 0x00, 0xff, 0xbf, 0x3f, 0x7c, 0x00, 0x00, 0xff, 0x3f, 0x3c,
   0x7c, 0x00, 0x00, 0x00, 0x00, 0x3c, 0x7c, 0x00, 0x00, 0x00, 0x00, 0x3c,
   0xfc, 0x00, 0x00, 0x00, 0x00, 0x3e, 0xfc, 0x00, 0x00, 0x00, 0x00, 0x3e,
   0xf4, 0x0c, 0x00, 0x00, 0x60, 0x3e, 0xf4, 0x0d, 0x00, 0x00, 0x60, 0x3f,
   0xe4, 0x01, 0x00, 0x00, 0x00, 0x2f, 0xe4, 0x03, 0x00, 0x00, 0x80, 0x2f,
   0xc4, 0x07, 0x00, 0x00, 0xc0, 0x27, 0x84, 0x0f, 0x00, 0x00, 0xe0, 0x23,
   0x04, 0x1f, 0x03, 0x80, 0xf1, 0x21, 0x04, 0x3e, 0x03, 0x80, 0xf9, 0x20,
   0x04, 0x7c, 0x80, 0x01, 0x7c, 0x20, 0x04, 0xf8, 0x81, 0x01, 0x3f, 0x20,
   0x04, 0xf0, 0x8f, 0xe1, 0x1f, 0x20, 0x04, 0xc0, 0xff, 0xff, 0x0f, 0x20,
   0x04, 0x80, 0xff, 0xff, 0x03, 0x20, 0x04, 0x00, 0xfe, 0xff, 0x00, 0x20,
   0x04, 0x00, 0xe0, 0x0f, 0x00, 0x20, 0xfc, 0xff, 0xff, 0xff, 0xff, 0x3f,
   0x00, 0x00, 0x00, 0x00, 0x00, 0x00, 0x00, 0x00, 0x00, 0x00, 0x00, 0x00};
