#define clock1_width 48
#define clock1_height 48
static char clock1_bits[] = {
   0x00, 0x00, 0x00, 0x00, 0x00, 0x00, 0x00, 0x00, 0x00, 0x00, 0x00, 0x00,
   0x00, 0x00, 0xfc, 0x1f, 0x00, 0x00, 0x00, 0x80, 0xff, 0xff, 0x00, 0x00,
   0x00, 0xe0, 0xff, 0xff, 0x03, 0x00, 0x00, 0xf0, 0xff, 0xff, 0x07, 0x00,
   0x00, 0xf8, 0x87, 0xf1, 0x0f, 0x00, 0x00, 0xfc, 0x80, 0x81, 0x1f, 0x00,
   0x00, 0x3e, 0x80, 0x01, 0x3e, 0x00, 0x00, 0x9f, 0x01, 0xc0, 0x7c, 0x00,
   0x80, 0x8f, 0x01, 0xc0, 0xf8, 0x00, 0xc0, 0x07, 0x00, 0x00, 0xf0, 0x01,
   0xe0, 0x03, 0x00, 0x70, 0xe0, 0x03, 0xe0, 0x01, 0x00, 0x70, 0xc0, 0x03,
   0xf0, 0x00, 0x00, 0x38, 0x80, 0x07, 0xf0, 0x06, 0x00, 0x3c, 0xb0, 0x07,
   0x78, 0x06, 0x00, 0x1c, 0x30, 0x0f, 0x78, 0x00, 0x00, 0x1e, 0x00, 0x0f,
   0x78, 0x00, 0x00, 0x0f, 0x00, 0x0f, 0x38, 0x00, 0x00, 0x07, 0x00, 0x0e,
   0x3c, 0x00, 0x80, 0x07, 0x00, 0x1e, 0x3c, 0x00, 0x80, 0x03, 0x00, 0x1e,
   0x3c, 0x00, 0xc0, 0x03, 0x00, 0x1e, 0xfc, 0x01, 0xc0, 0x01, 0xc0, 0x1f,
   0xfc, 0x01, 0x00, 0x00, 0xc0, 0x1f, 0x3c, 0x00, 0x00, 0x00, 0x00, 0x1e,
   0x3c, 0x00, 0x00, 0x00, 0x00, 0x1e, 0x3c, 0x00, 0x00, 0x00, 0x00, 0x0e,
   0x78, 0x00, 0x00, 0x00, 0x00, 0x0f, 0x78, 0x00, 0x00, 0x00, 0x00, 0x0f,
   0x78, 0x06, 0x00, 0x00, 0x30, 0x0f, 0xf0, 0x06, 0x00, 0x00, 0xb0, 0x07,
   0xf0, 0x00, 0x00, 0x00, 0x80, 0x07, 0xe0, 0x01, 0x00, 0x00, 0xc0, 0x03,
   0xe0, 0x03, 0x00, 0x00, 0xe0, 0x01, 0xc0, 0x07, 0x00, 0x00, 0xf0, 0x01,
   0x80, 0x8f, 0x01, 0xc0, 0xf8, 0x00, 0x00, 0x9f, 0x01, 0xc0, 0x7c, 0x00,
   0x00, 0x3e, 0x80, 0x01, 0x3e, 0x00, 0x00, 0xfc, 0x80, 0x81, 0x1f, 0x00,
   0x00, 0xf8, 0x87, 0xf1, 0x0f, 0x00, 0x00, 0xf0, 0xff, 0xff, 0x07, 0x00,
   0x00, 0xe0, 0xff, 0xff, 0x03, 0x00, 0x00, 0x80, 0xff, 0xff, 0x00, 0x00,
   0x00, 0x00, 0xfe, 0x3f, 0x00, 0x00, 0x00, 0x00, 0xf0, 0x0f, 0x00, 0x00,
   0x00, 0x00, 0x00, 0x00, 0x00, 0x00, 0x00, 0x00, 0x00, 0x00, 0x00, 0x00};
