#define clock8_width 48
#define clock8_height 48
static char clock8_bits[] = {
   0x00, 0x00, 0x00, 0x00, 0x00, 0x00, 0x00, 0x00, 0x00, 0x00, 0x00, 0x00,
   0x00, 0x00, 0xf0, 0x0f, 0x00, 0x00, 0x00, 0x00, 0xfc, 0x7f, 0x00, 0x00,
   0x00, 0x00, 0xff, 0xff, 0x01, 0x00, 0x00, 0xc0, 0xff, 0xff, 0x07, 0x00,
   0x00, 0xe0, 0xff, 0xff, 0x0f, 0x00, 0x00, 0xf0, 0x8f, 0xe1, 0x1f, 0x00,
   0x00, 0xf8, 0x81, 0x01, 0x3f, 0x00, 0x00, 0x7c, 0x80, 0x01, 0x7c, 0x00,
   0x00, 0x3e, 0x03, 0x80, 0xf9, 0x00, 0x00, 0x1f, 0x03, 0x80, 0xf1, 0x01,
   0x80, 0x0f, 0x00, 0x00, 0xe0, 0x03, 0x80, 0x07, 0x00, 0x00, 0xc0, 0x07,
   0xc0, 0x03, 0x00, 0x00, 0x80, 0x07, 0xe0, 0x01, 0x00, 0x00, 0x00, 0x0f,
   0xe0, 0x0d, 0x00, 0x00, 0x60, 0x0f, 0xf0, 0x0c, 0x00, 0x00, 0x60, 0x1e,
   0xf0, 0x00, 0x00, 0x00, 0x00, 0x1e, 0xf0, 0x00, 0x00, 0x00, 0x00, 0x1e,
   0x70, 0x00, 0x00, 0x00, 0x00, 0x3c, 0x78, 0x00, 0x00, 0x00, 0x00, 0x3c,
   0x78, 0x00, 0x00, 0x00, 0x00, 0x3c, 0xf8, 0x03, 0x00, 0x00, 0x80, 0x3f,
   0xf8, 0x03, 0xe0, 0x03, 0x80, 0x3f, 0x78, 0x00, 0xf8, 0x01, 0x00, 0x3c,
   0x78, 0x00, 0x7e, 0x00, 0x00, 0x3c, 0x78, 0x80, 0x1f, 0x00, 0x00, 0x3c,
   0x70, 0xe0, 0x07, 0x00, 0x00, 0x1c, 0xf0, 0xf8, 0x01, 0x00, 0x00, 0x1e,
   0xf0, 0x00, 0x00, 0x00, 0x00, 0x1e, 0xf0, 0x0c, 0x00, 0x00, 0x60, 0x1e,
   0xe0, 0x0d, 0x00, 0x00, 0x60, 0x0f, 0xe0, 0x01, 0x00, 0x00, 0x00, 0x0f,
   0xc0, 0x03, 0x00, 0x00, 0x80, 0x07, 0xc0, 0x07, 0x00, 0x00, 0xc0, 0x07,
   0x80, 0x0f, 0x00, 0x00, 0xe0, 0x03, 0x00, 0x1f, 0x03, 0x80, 0xf1, 0x01,
   0x00, 0x3e, 0x03, 0x80, 0xf9, 0x00, 0x00, 0x7c, 0x80, 0x01, 0x7c, 0x00,
   0x00, 0xf8, 0x81, 0x01, 0x3f, 0x00, 0x00, 0xf0, 0x8f, 0xe1, 0x1f, 0x00,
   0x00, 0xe0, 0xff, 0xff, 0x0f, 0x00, 0x00, 0xc0, 0xff, 0xff, 0x07, 0x00,
   0x00, 0x00, 0xff, 0xff, 0x01, 0x00, 0x00, 0x00, 0xf8, 0x3f, 0x00, 0x00,
   0x00, 0x00, 0x00, 0x00, 0x00, 0x00, 0x00, 0x00, 0x00, 0x00, 0x00, 0x00};
