#define clock23_width 48
#define clock23_height 48
static char clock23_bits[] = {
   0x00, 0x00, 0x00, 0x00, 0x00, 0x00, 0x00, 0x00, 0x00, 0x00, 0x00, 0x00,
   0x00, 0x00, 0x00, 0x00, 0x00, 0x00, 0xfc, 0xff, 0xff, 0xff, 0xff, 0x3f,
   0x04, 0x00, 0xff, 0x7f, 0x00, 0x20, 0x04, 0xc0, 0xff, 0xff, 0x01, 0x20,
   0x04, 0xf0, 0xff, 0xff, 0x03, 0x20, 0x04, 0xf8, 0x87, 0xf1, 0x0f, 0x20,
   0x04, 0xfc, 0x80, 0x81, 0x1f, 0x20, 0x04, 0x3e, 0x80, 0x01, 0x3e, 0x20,
   0x04, 0x9f, 0x01, 0xc0, 0x7c, 0x20, 0x84, 0x8f, 0x05, 0xc0, 0xf8, 0x20,
   0xc4, 0x07, 0x04, 0x00, 0xf0, 0x21, 0xe4, 0x03, 0x0c, 0x00, 0xe0, 0x23,
   0xf4, 0x01, 0x0c, 0x00, 0xc0, 0x27, 0xf4, 0x00, 0x1c, 0x00, 0x80, 0x27,
   0xfc, 0x06, 0x1c, 0x00, 0xb0, 0x2f, 0x7c, 0x06, 0x38, 0x00, 0x30, 0x2f,
   0x7c, 0x00, 0x38, 0x00, 0x00, 0x3f, 0x7c, 0x00, 0x70, 0x00, 0x00, 0x3f,
   0x3c, 0x00, 0x70, 0x00, 0x00, 0x3e, 0x3c, 0x00, 0xe0, 0x00, 0x00, 0x3e,
   0x3c, 0x00, 0xe0, 0x00, 0x00, 0x3e, 0xfc, 0x01, 0xc0, 0x00, 0xc0, 0x3f,
   0xfc, 0x01, 0xc0, 0x00, 0xc0, 0x3f, 0x3c, 0x00, 0x80, 0x00, 0x00, 0x3e,
   0x3c, 0x00, 0x00, 0x00, 0x00, 0x3e, 0x3c, 0x00, 0x00, 0x00, 0x00, 0x3e,
   0x3c, 0x00, 0x00, 0x00, 0x00, 0x3e, 0x7c, 0x00, 0x00, 0x00, 0x00, 0x3f,
   0x7c, 0x00, 0x00, 0x00, 0x00, 0x3f, 0x7c, 0x06, 0x00, 0x00, 0x30, 0x2f,
   0xfc, 0x06, 0x00, 0x00, 0xb0, 0x2f, 0xf4, 0x00, 0x00, 0x00, 0x80, 0x27,
   0xf4, 0x01, 0x00, 0x00, 0xc0, 0x27, 0xe4, 0x03, 0x00, 0x00, 0xe0, 0x23,
   0xc4, 0x07, 0x00, 0x00, 0xf0, 0x21, 0x84, 0x8f, 0x01, 0xc0, 0xf8, 0x20,
   0x04, 0x9f, 0x01, 0xc0, 0x7c, 0x20, 0x04, 0x3e, 0x80, 0x01, 0x3e, 0x20,
   0x04, 0xfc, 0x80, 0x81, 0x1f, 0x20, 0x04, 0xf8, 0x87, 0xf1, 0x0f, 0x20,
   0x04, 0xf0, 0xff, 0xff, 0x07, 0x20, 0x04, 0xc0, 0xff, 0xff, 0x01, 0x20,
   0x04, 0x00, 0xff, 0x7f, 0x00, 0x20, 0xfc, 0xff, 0xff, 0xff, 0xff, 0x3f,
   0x00, 0x00, 0x00, 0x00, 0x00, 0x00, 0x00, 0x00, 0x00, 0x00, 0x00, 0x00};
