#define clock12_width 48
#define clock12_height 48
static char clock12_bits[] = {
   0x00, 0x00, 0x00, 0x00, 0x00, 0x00, 0xfc, 0xff, 0xff, 0xff, 0xff, 0x3f,
   0x04, 0x00, 0xfc, 0x1f, 0x00, 0x20, 0x04, 0x80, 0xff, 0xff, 0x00, 0x20,
   0x04, 0xe0, 0xff, 0xff, 0x03, 0x20, 0x04, 0xf0, 0xff, 0xff, 0x07, 0x20,
   0x04, 0xf8, 0x87, 0xf1, 0x0f, 0x20, 0x04, 0xfc, 0x80, 0x81, 0x1f, 0x20,
   0x04, 0x3e, 0x80, 0x01, 0x3e, 0x20, 0x04, 0x9f, 0x01, 0xc0, 0x7c, 0x20,
   0x84, 0x8f, 0xc1, 0xc3, 0xf8, 0x20, 0xc4, 0x07, 0xc0, 0x03, 0xf0, 0x21,
   0xe4, 0x03, 0xc0, 0x03, 0xe0, 0x23, 0xe4, 0x01, 0xc0, 0x03, 0xc0, 0x23,
   0xf4, 0x00, 0xc0, 0x03, 0x80, 0x27, 0xf4, 0x06, 0xc0, 0x03, 0xb0, 0x27,
   0x7c, 0x06, 0xc0, 0x03, 0x30, 0x2f, 0x7c, 0x00, 0xc0, 0x03, 0x00, 0x2f,
   0x7c, 0x00, 0xc0, 0x03, 0x00, 0x2f, 0x3c, 0x00, 0xc0, 0x03, 0x00, 0x2e,
   0x3c, 0x00, 0xc0, 0x03, 0x00, 0x3e, 0x3c, 0x00, 0xc0, 0x03, 0x00, 0x3e,
   0x3c, 0x00, 0xc0, 0x03, 0x00, 0x3e, 0xfc, 0x01, 0xc0, 0x03, 0xc0, 0x3f,
   0xfc, 0x01, 0x00, 0x00, 0xc0, 0x3f, 0x3c, 0x00, 0x00, 0x00, 0x00, 0x3e,
   0x3c, 0x00, 0x00, 0x00, 0x00, 0x3e, 0x3c, 0x00, 0x00, 0x00, 0x00, 0x2e,
   0x7c, 0x00, 0x00, 0x00, 0x00, 0x2f, 0x7c, 0x00, 0x00, 0x00, 0x00, 0x2f,
   0x7c, 0x06, 0x00, 0x00, 0x30, 0x2f, 0xf4, 0x06, 0x00, 0x00, 0xb0, 0x27,
   0xf4, 0x00, 0x00, 0x00, 0x80, 0x27, 0xe4, 0x01, 0x00, 0x00, 0xc0, 0x23,
   0xe4, 0x03, 0x00, 0x00, 0xe0, 0x21, 0xc4, 0x07, 0x00, 0x00, 0xf0, 0x21,
   0x84, 0x8f, 0x01, 0xc0, 0xf8, 0x20, 0x04, 0x9f, 0x01, 0xc0, 0x7c, 0x20,
   0x04, 0x3e, 0x80, 0x01, 0x3e, 0x20, 0x04, 0xfc, 0x80, 0x81, 0x1f, 0x20,
   0x04, 0xf8, 0x87, 0xf1, 0x0f, 0x20, 0x04, 0xf0, 0xff, 0xff, 0x07, 0x20,
   0x04, 0xe0, 0xff, 0xff, 0x03, 0x20, 0x04, 0x80, 0xff, 0xff, 0x00, 0x20,
   0x04, 0x00, 0xfe, 0x3f, 0x00, 0x20, 0x04, 0x00, 0xf0, 0x0f, 0x00, 0x20,
   0xfc, 0xff, 0xff, 0xff, 0xff, 0x3f, 0x00, 0x00, 0x00, 0x00, 0x00, 0x00};
