#define noname_width 165
#define noname_height 50
static char noname_bits[] = {
 0x00,0x00,0x00,0x00,0x00,0x00,0x00,0x00,0x00,0x00,0x00,0x00,0x00,0x00,0x00,
 0x00,0x00,0x00,0x00,0x00,0x00,0x00,0x00,0x00,0x00,0x00,0x00,0x00,0x00,0x00,
 0x00,0x00,0x00,0x00,0x00,0x00,0x00,0x00,0x00,0x00,0x00,0x00,0x00,0x00,0x00,
 0x00,0x00,0x00,0x00,0x00,0x00,0x00,0x00,0x00,0x00,0x00,0x00,0x00,0x00,0x00,
 0x00,0x00,0x00,0x00,0x00,0x00,0x00,0x00,0x00,0x00,0x00,0x00,0x00,0x00,0x00,
 0x00,0x00,0x00,0x00,0x00,0x00,0x08,0x00,0x00,0x00,0x00,0x00,0x00,0x00,0x00,
 0x00,0x00,0x00,0x00,0x00,0x00,0x00,0x00,0x00,0x00,0x00,0xc0,0xff,0x05,0x00,
 0x00,0x00,0x00,0x00,0x00,0x00,0x00,0x00,0x00,0x00,0x00,0x00,0x00,0x00,0x00,
 0x00,0x00,0xe0,0xc0,0x3f,0x00,0x00,0x00,0x00,0x00,0x00,0x00,0x00,0x00,0x00,
 0x00,0x00,0x00,0x00,0x00,0x00,0x00,0x00,0x38,0xff,0xff,0x02,0x00,0x00,0x00,
 0x00,0x00,0x00,0x00,0x00,0x00,0x00,0x00,0x00,0x00,0x00,0x00,0x00,0x00,0x9c,
 0x01,0xe8,0x0f,0x00,0x00,0x00,0x00,0x00,0x00,0x00,0x00,0x00,0x00,0x00,0x00,
 0x00,0x00,0x00,0x00,0x00,0x8c,0x7f,0xff,0x03,0x00,0x00,0x00,0x00,0x00,0x00,
 0x00,0x00,0x00,0x00,0x00,0x00,0x00,0x00,0x00,0x00,0x00,0x07,0xd0,0xf9,0x00,
 0x00,0x00,0x00,0x00,0x00,0x00,0x00,0x00,0x00,0x00,0x00,0x00,0x00,0x00,0x00,
 0x00,0x80,0x01,0x60,0x0c,0x00,0x00,0x00,0x00,0x00,0x00,0x00,0x00,0x00,0x00,
 0x00,0x00,0x00,0x00,0x00,0x00,0x00,0x80,0x01,0x20,0x0e,0x00,0x00,0x00,0x00,
 0x00,0x00,0x00,0x00,0x00,0x00,0x00,0x00,0x00,0x00,0x00,0x00,0x00,0xc0,0x00,
 0x30,0x06,0x00,0x00,0x00,0x00,0x00,0x00,0x00,0x00,0x00,0x00,0x00,0x00,0x00,
 0x00,0x00,0x00,0x00,0x60,0x00,0x18,0x03,0x00,0x00,0x00,0x00,0x00,0x00,0x00,
 0x00,0x00,0x00,0x00,0x00,0x00,0x00,0x00,0x00,0x00,0x30,0x00,0x08,0x01,0x00,
 0x00,0x00,0x00,0x00,0x00,0x00,0x00,0x00,0x00,0x00,0x00,0x00,0x00,0x00,0x00,
 0x00,0x18,0x00,0x8c,0x01,0x00,0x00,0x00,0x00,0x00,0x00,0x00,0x00,0x00,0x00,
 0x00,0x00,0x00,0x00,0x00,0x00,0x00,0x1c,0x00,0xc2,0x00,0x00,0x00,0x00,0x00,
 0x00,0x00,0x00,0x00,0x00,0x00,0x00,0x00,0x00,0x00,0x00,0x00,0xa0,0x07,0x00,
 0xc2,0x00,0x00,0x00,0x00,0x00,0x00,0x00,0x00,0x00,0x00,0x00,0x00,0x00,0x00,
 0x00,0x00,0x00,0xfe,0x01,0x00,0x61,0x00,0x00,0x00,0x00,0xa8,0xaa,0xaa,0xaa,
 0xaa,0x22,0x00,0x00,0x00,0x00,0x00,0x00,0xf0,0x0b,0x00,0x80,0x31,0x00,0x00,
 0x00,0xc0,0xaf,0xaa,0xaa,0xaa,0xfa,0xff,0xff,0xff,0xff,0xff,0xff,0xff,0xff,
 0x00,0x00,0x80,0x30,0x00,0x00,0x00,0x60,0x01,0x00,0x00,0x00,0x00,0x00,0x00,
 0x00,0x00,0x00,0x00,0x55,0xd5,0xff,0xab,0xc2,0x1f,0x00,0x00,0x00,0x38,0xe0,
 0x01,0x00,0x00,0x00,0x00,0x00,0x00,0x00,0x00,0x40,0x2a,0x00,0x00,0xd5,0x7f,
 0x3f,0x00,0x00,0x00,0x0c,0x20,0x02,0x00,0x00,0x00,0x00,0x00,0x00,0x00,0x00,
 0xb0,0xd5,0x2f,0x00,0x00,0x80,0x3a,0x00,0x00,0x00,0x5e,0x11,0x01,0x00,0x00,
 0x00,0x00,0x00,0x00,0x00,0x00,0x20,0x00,0xd0,0x07,0x00,0x00,0x20,0x00,0x00,
 0x80,0x6f,0x33,0x52,0xd7,0xaa,0x04,0x81,0x00,0x01,0x00,0x00,0x10,0x00,0x00,
 0x1c,0x00,0x00,0x70,0x00,0x00,0xe0,0x00,0x10,0xd9,0x55,0xa8,0x76,0xad,0x7e,
 0xd9,0xee,0xbb,0x27,0x00,0x00,0x08,0x00,0x00,0x20,0x00,0x00,0x38,0x00,0x30,
 0x02,0x00,0x00,0x00,0x00,0x00,0x00,0x00,0x00,0x10,0x00,0x00,0x0c,0x00,0x00,
 0x30,0x00,0x00,0x1c,0x00,0x10,0x01,0x00,0x00,0x00,0x00,0x00,0x00,0x00,0x00,
 0x30,0x00,0x00,0x08,0x00,0x00,0x3d,0x00,0x00,0x0c,0x00,0x30,0x03,0x00,0x00,
 0x00,0x00,0xff,0x5f,0x01,0x04,0x30,0x00,0x00,0x1e,0x00,0xf0,0x1f,0x00,0x00,
 0x04,0x00,0x10,0x01,0x00,0x00,0x00,0x80,0x00,0xe0,0xff,0x1f,0xe0,0xab,0xea,
 0x05,0x80,0xff,0x02,0x00,0x00,0x0c,0x00,0x10,0x01,0x00,0x00,0x00,0xc0,0xfa,
 0xff,0xff,0xff,0x0b,0x54,0x15,0x00,0xfa,0x17,0x00,0x00,0x00,0x3c,0x00,0xe0,
 0x01,0x00,0x00,0x00,0x80,0xfc,0xff,0xff,0x3f,0x34,0x00,0x00,0xe0,0x7f,0x01,
 0x00,0x00,0x00,0xf8,0x05,0x00,0x00,0x00,0x00,0x00,0x80,0xa0,0xff,0xff,0x1f,
 0x20,0x00,0x80,0xfe,0x05,0x00,0x00,0x00,0x00,0xe0,0x7f,0xb5,0x00,0x00,0x00,
 0x00,0x00,0x17,0x00,0x40,0x15,0x18,0x00,0xf4,0x1f,0x00,0x00,0x00,0x00,0x00,
 0x00,0xff,0xff,0xff,0xff,0xff,0xff,0xff,0xff,0x0a,0x00,0xa8,0xbf,0xaa,0xff,
 0x01,0x00,0x00,0x00,0x00,0x00,0x00,0xa0,0xfe,0xff,0xff,0xff,0xff,0xff,0xff,
 0xff,0xff,0xff,0xff,0xff,0x17,0x00,0x00,0x00,0x00,0x00,0x00,0x00,0x00,0x00,
 0x00,0x00,0x00,0x00,0x00,0x80,0xfa,0xff,0xaf,0xaa,0x5f,0x00,0x00,0x00,0x00,
 0x00,0x00,0x00,0x00,0x00,0x00,0x00,0x00,0x00,0x00,0x00,0x00,0x00,0x00,0x00,
 0x00,0x00,0x00,0x00,0x00,0x00,0x00,0x00,0x00,0x00,0x00,0x00,0x00,0x00,0x00,
 0x00,0x00,0x00,0x00,0x00,0x00,0x00,0x00,0x00,0x00,0x00,0x00,0x00,0x00,0x00,
 0x00,0x00,0x00,0x00,0x00,0x00,0x00,0x00,0x00,0x00,0x00,0x00,0x00,0x00,0x00,
 0x00,0x00,0x00,0x00,0x00,0x00,0x00,0x00,0x00,0x00,0x00,0x00,0x00,0x00,0x00,
 0x00,0x00,0x00,0x00,0x00,0x00,0x00,0x00,0x00,0x00,0x00,0x00,0x00,0x00,0x00,
 0x00,0x00,0x00,0x00,0x00,0x00,0x00,0x00,0x00,0x00,0x00,0x00,0x00,0x00,0x00,
 0x00,0x00,0x00,0x00,0x00,0x00,0x00,0x00,0x00,0x00,0x00,0x00,0x00,0x00,0x00,
 0x00,0x00,0x00,0x00,0x00,0x00,0x00,0x00,0x00,0x00,0x00,0x00,0x00,0x00,0x00,
 0x00,0x00,0x00,0x00,0x00,0x00,0x00,0x00,0x00,0x00,0x00,0x00,0x00,0x00,0x00,
 0x00,0x00,0x00,0x00,0x00,0x00,0x00,0x00,0x00,0x00,0x00,0x00,0x00,0x00,0x00,
 0x00,0x00,0x00,0x00,0x00,0x00,0x00,0x00,0x00,0x00,0x00,0x00,0x00,0x00,0x00,
 0x00,0x00,0x00,0x00,0x00,0x00,0x00,0x00,0x00,0x00,0x00,0x00,0x00,0x00,0x00,
 0x00,0x00,0x00,0x00,0x00,0x00,0x00,0x00,0x00,0x00,0x00,0x00,0x00,0x00,0x00,
 0x00,0x00,0x00,0x00,0x00,0x00,0x00,0x00,0x00,0x00,0x00,0x00,0x00,0x00,0x00,
 0x00,0x00,0x00,0x00,0x00,0x00,0x00,0x00,0x00,0x00,0x00,0x00,0x00,0x00,0x00,
 0x00,0x00,0x00,0x00,0x00,0x00,0x00,0x00,0x00,0x00,0x00,0x00,0x00,0x00,0x00};
