#define noname_width 110
#define noname_height 50
static char noname_bits[] = {
 0x00,0x00,0x00,0x00,0x00,0x00,0x00,0x00,0x00,0x00,0x00,0x00,0x00,0x00,0x00,
 0x00,0x00,0x00,0x00,0x00,0x00,0x00,0x00,0x00,0x00,0x00,0x00,0x00,0x00,0x00,
 0x00,0x00,0x00,0x00,0x00,0x00,0x00,0x00,0x00,0x00,0x00,0x00,0x00,0x00,0x00,
 0x00,0x00,0x00,0x00,0x00,0x00,0x00,0x00,0x00,0x00,0x00,0x00,0x00,0x00,0x00,
 0x00,0x00,0x00,0x00,0x00,0x00,0x40,0x01,0x04,0x00,0x00,0x00,0x00,0x00,0x00,
 0x3c,0x00,0x00,0x50,0xf5,0xaf,0x00,0x02,0x00,0x00,0x00,0x00,0x00,0x00,0x42,
 0x55,0xff,0x7f,0x15,0x00,0x00,0x08,0x00,0x00,0x00,0x00,0x50,0xd5,0x81,0xff,
 0x57,0x01,0x00,0x00,0x00,0x02,0x00,0xfc,0xff,0xff,0xff,0xff,0xc3,0x1f,0x00,
 0x00,0x00,0x00,0x10,0x08,0x03,0x00,0x00,0x00,0x00,0x54,0x01,0x20,0x28,0x00,
 0x00,0x00,0x90,0x42,0x03,0x00,0x00,0x00,0xe0,0x15,0x00,0x40,0xd6,0x00,0x00,
 0x00,0x40,0xdb,0x00,0x00,0x00,0x00,0xb0,0x01,0x00,0x80,0x02,0x00,0x00,0x00,
 0x80,0x2e,0x00,0x00,0x00,0x00,0xb8,0x00,0x00,0x00,0x83,0x00,0x00,0x00,0x00,
 0x32,0x00,0x00,0x00,0x00,0xfc,0x00,0x00,0x00,0x00,0xab,0x00,0x00,0x80,0x77,
 0x00,0x00,0x00,0x00,0x3e,0x00,0x00,0x00,0x00,0x50,0x7f,0x05,0xe0,0xac,0x00,
 0x00,0x00,0x00,0x96,0x4f,0x00,0x00,0x00,0x00,0x00,0xea,0x3f,0x78,0x03,0x00,
 0x00,0x00,0x7f,0x03,0x00,0x00,0x00,0x00,0x00,0x00,0x50,0x18,0x03,0x00,0x00,
 0xc0,0x7f,0x42,0x00,0x00,0x00,0x00,0x00,0x00,0x10,0x08,0x00,0x00,0x00,0xa0,
 0x7e,0x00,0xc0,0x00,0x00,0x00,0x00,0x00,0x00,0x03,0x00,0x00,0x00,0xa0,0x03,
 0x00,0x80,0x01,0x00,0x00,0x00,0x00,0x80,0x07,0x00,0x00,0x00,0xd0,0x01,0x20,
 0x80,0x00,0x00,0x00,0x00,0x00,0xc0,0x04,0x00,0x00,0x00,0x10,0x01,0x70,0x07,
 0x00,0x00,0x00,0x00,0x00,0x74,0x00,0x00,0x00,0x00,0x10,0x00,0x08,0x18,0x00,
 0x00,0x00,0x00,0xd0,0x1f,0x00,0x00,0x00,0x00,0x10,0x80,0x07,0x40,0x00,0x00,
 0x00,0xa0,0xff,0x02,0x00,0x00,0x00,0x00,0x20,0x00,0x10,0x80,0x00,0x00,0x00,
 0xfc,0x05,0x00,0x00,0x00,0x00,0x00,0xc0,0x00,0xe0,0x00,0x00,0x00,0x00,0x0c,
 0x00,0x00,0x00,0x00,0x00,0x00,0x80,0x2b,0x00,0xd7,0x00,0x00,0x00,0x06,0x00,
 0x00,0x00,0x00,0x00,0x00,0x00,0xfc,0x9f,0xff,0xff,0x5d,0x55,0x03,0x00,0x00,
 0x00,0x00,0x00,0x00,0x00,0x80,0x1a,0x55,0x55,0xfd,0xff,0x03,0x00,0x00,0x00,
 0x00,0x00,0x00,0x00,0x00,0xf0,0x01,0x00,0x00,0x00,0x00,0x00,0x00,0x00,0x00,
 0x00,0x00,0x00,0x00,0x60,0x00,0x00,0x00,0x00,0x00,0x00,0x00,0x00,0x00,0x00,
 0x00,0x00,0x00,0x00,0x00,0x00,0x00,0x00,0x00,0x00,0x00,0x00,0x00,0x00,0x00,
 0x00,0x00,0x00,0x00,0x00,0x00,0x00,0x00,0x00,0x00,0x00,0x00,0x00,0x00,0x00,
 0x00,0x00,0x00,0x00,0x00,0x00,0x00,0x00,0x00,0x00,0x00,0x00,0x00,0x00,0x00,
 0x00,0x00,0x00,0x00,0x00,0x00,0x00,0x00,0x00,0x00,0x00,0x00,0x00,0x00,0x00,
 0x00,0x00,0x00,0x00,0x00,0x00,0x00,0x00,0x00,0x00,0x00,0x00,0x00,0x00,0x00,
 0x00,0x00,0x00,0x00,0x00,0x00,0x00,0x00,0x00,0x00,0x00,0x00,0x00,0x00,0x00,
 0x00,0x00,0x00,0x00,0x00,0x00,0x00,0x00,0x00,0x00,0x00,0x00,0x00,0x00,0x00,
 0x00,0x00,0x00,0x00,0x00,0x00,0x00,0x00,0x00,0x00,0x00,0x00,0x00,0x00,0x00,
 0x00,0x00,0x00,0x00,0x00,0x00,0x00,0x00,0x00,0x00,0x00,0x00,0x00,0x00,0x00,
 0x00,0x00,0x00,0x00,0x00,0x00,0x00,0x00,0x00,0x00,0x00,0x00,0x00,0x00,0x00,
 0x00,0x00,0x00,0x00,0x00,0x00,0x00,0x00,0x00,0x00,0x00,0x00,0x00,0x00,0x00,
 0x00,0x00,0x00,0x00,0x00,0x00,0x00,0x00,0x00,0x00,0x00,0x00,0x00,0x00,0x00,
 0x00,0x00,0x00,0x00,0x00,0x00,0x00,0x00,0x00,0x00,0x00,0x00,0x00,0x00,0x00,
 0x00,0x00,0x00,0x00,0x00,0x00,0x00,0x00,0x00,0x00,0x00,0x00,0x00,0x00,0x00,
 0x00,0x00,0x00,0x00,0x00,0x00,0x00,0x00,0x00,0x00,0x00,0x00,0x00,0x00,0x00,
 0x00,0x00,0x00,0x00,0x00,0x00,0x00,0x00,0x00,0x00,0x00,0x00,0x00,0x00,0x00,
 0x00,0x00,0x00,0x00,0x00,0x00,0x00,0x00,0x00,0x00,0x00,0x00,0x00,0x00,0x00,
 0x00,0x00,0x00,0x00,0x00,0x00,0x00,0x00,0x00,0x00};
