#define test_men_width 48
#define test_men_height 48
static char test_men_bits[] = {
   0x00, 0x00, 0x00, 0x00, 0x00, 0x00, 0x00, 0x00, 0x00, 0x00, 0x00, 0x00,
   0x00, 0x00, 0x00, 0x00, 0x00, 0x00, 0x00, 0x00, 0x00, 0x00, 0x00, 0x00,
   0x00, 0x00, 0x00, 0x00, 0x00, 0x00, 0x00, 0x00, 0x00, 0x00, 0x00, 0x00,
   0x00, 0x00, 0x00, 0x00, 0x00, 0x00, 0x00, 0x00, 0x00, 0x00, 0x00, 0x00,
   0x00, 0x00, 0x00, 0x00, 0x00, 0x00, 0x00, 0x00, 0x00, 0x00, 0x00, 0x00,
   0x00, 0x80, 0xff, 0x0f, 0x00, 0x00, 0x00, 0x80, 0xdf, 0x0f, 0x00, 0x00,
   0x00, 0x80, 0xdf, 0x0f, 0x00, 0x00, 0x00, 0x80, 0x8f, 0x0f, 0x00, 0x00,
   0x00, 0x80, 0x8f, 0x0f, 0x00, 0x00, 0x00, 0x80, 0xff, 0x0f, 0x00, 0x00,
   0x00, 0x80, 0x00, 0x08, 0x00, 0x00, 0x00, 0x80, 0x00, 0x08, 0x00, 0x00,
   0x00, 0x40, 0x8c, 0x11, 0x00, 0x00, 0x00, 0x40, 0x20, 0x10, 0x00, 0x00,
   0x00, 0x40, 0x20, 0x10, 0x00, 0x00, 0x00, 0x80, 0x20, 0x08, 0x00, 0x00,
   0x00, 0x80, 0x00, 0x08, 0x00, 0x00, 0x00, 0x00, 0xf9, 0x04, 0x00, 0x00,
   0x00, 0x00, 0x03, 0x06, 0x00, 0x00, 0x00, 0x00, 0x8c, 0x01, 0x00, 0x00,
   0x00, 0x00, 0x70, 0x00, 0x00, 0x00, 0x00, 0xf8, 0xff, 0xff, 0x00, 0x00,
   0x00, 0xaf, 0x02, 0x56, 0x07, 0x00, 0x80, 0x55, 0x05, 0xab, 0x0e, 0x00,
   0x80, 0xaa, 0x06, 0x55, 0x0d, 0x00, 0x80, 0x55, 0x8d, 0xab, 0x0a, 0x00,
   0x80, 0xaa, 0x8a, 0x55, 0x0d, 0x00, 0x80, 0x55, 0xd5, 0xea, 0x0a, 0x00,
   0x80, 0xba, 0x5a, 0x55, 0x0d, 0x00, 0x80, 0x55, 0xb5, 0xea, 0x0a, 0x00,
   0x80, 0xba, 0x6a, 0x55, 0x0d, 0x00, 0x80, 0x55, 0xb5, 0xea, 0x0a, 0x00,
   0x80, 0xba, 0x6a, 0x55, 0x0d, 0x00, 0x80, 0x55, 0xb5, 0xea, 0x0a, 0x00,
   0x80, 0xba, 0x6a, 0x55, 0x0d, 0x00, 0x80, 0x55, 0xb5, 0xea, 0x0a, 0x00,
   0x80, 0xba, 0x6a, 0x55, 0x0d, 0x00, 0x80, 0x5f, 0xb5, 0xea, 0x0f, 0x00,
   0x80, 0xb0, 0x6a, 0x55, 0x08, 0x00, 0x80, 0x5a, 0xb5, 0xea, 0x0a, 0x00,
   0x00, 0xf5, 0xff, 0x7f, 0x05, 0x00, 0x00, 0x00, 0x00, 0x00, 0x00, 0x00};
