#define queens_width 32
#define queens_height 32
static char queens_bits[] = {
   0x00, 0x00, 0x00, 0x00, 0x00, 0x00, 0x00, 0x00, 0x00, 0x80, 0x01, 0x00,
   0x00, 0x80, 0x01, 0x00, 0x00, 0xf0, 0x0f, 0x00, 0x00, 0xf0, 0x0f, 0x00,
   0x00, 0x80, 0x01, 0x00, 0x00, 0x80, 0x01, 0x00, 0x00, 0x80, 0x01, 0x00,
   0x00, 0xf0, 0x0f, 0x00, 0x00, 0xc8, 0x13, 0x00, 0x00, 0xe6, 0x67, 0x00,
   0x00, 0x91, 0x89, 0x00, 0x80, 0x90, 0x09, 0x01, 0x40, 0x88, 0x11, 0x02,
   0x20, 0x88, 0x11, 0x04, 0x20, 0x88, 0x11, 0x04, 0x10, 0x84, 0x21, 0x08,
   0x08, 0x84, 0x21, 0x10, 0x08, 0x84, 0x21, 0x10, 0x08, 0x82, 0x41, 0x10,
   0x04, 0x82, 0x41, 0x20, 0x04, 0x82, 0x41, 0x20, 0x04, 0x82, 0x41, 0x20,
   0x02, 0x81, 0x81, 0x40, 0x02, 0x81, 0x81, 0x40, 0x02, 0x81, 0x81, 0x40,
   0x82, 0x81, 0x81, 0x41, 0x82, 0x80, 0x01, 0x41, 0xfe, 0xff, 0xff, 0x7f,
   0xfe, 0xff, 0xff, 0x7f, 0x00, 0x00, 0x00, 0x00};
