#define noname_width 165
#define noname_height 50
static char noname_bits[] = {
 0x00,0x00,0x00,0x00,0x00,0x00,0x00,0x00,0x00,0x00,0x00,0x00,0x00,0x00,0x00,
 0x00,0x00,0x00,0x00,0x00,0x00,0x00,0x00,0x00,0x00,0x00,0x00,0x00,0x00,0x00,
 0x00,0x00,0x00,0x00,0x00,0x00,0x00,0x00,0x00,0x00,0x00,0x00,0x00,0x00,0x00,
 0x00,0x00,0x00,0x00,0x00,0x00,0x00,0x00,0x00,0x00,0x00,0x00,0x00,0x00,0x00,
 0x00,0x00,0x00,0x00,0x00,0x00,0x00,0x00,0x00,0x00,0x00,0x00,0x00,0x00,0x00,
 0x00,0x00,0x00,0x00,0x00,0x00,0x00,0x00,0x00,0x00,0x00,0x00,0x00,0x00,0x00,
 0x00,0x00,0x00,0x00,0x00,0x00,0x00,0x00,0x00,0x00,0x00,0x00,0x00,0x00,0x00,
 0x00,0x00,0x00,0x00,0x00,0x00,0x00,0x00,0x00,0x00,0x00,0x00,0x00,0x00,0x00,
 0x00,0x00,0x00,0x00,0x00,0x00,0x00,0x00,0x00,0x00,0x00,0x00,0x00,0x00,0x00,
 0x00,0x00,0x00,0x00,0x00,0x00,0x00,0x00,0x40,0x02,0x00,0x00,0x00,0x00,0x00,
 0x00,0x00,0x00,0x00,0x00,0x00,0x00,0x00,0x00,0x00,0x00,0x00,0x00,0xf8,0xbf,
 0xfe,0x17,0x00,0x00,0x00,0x00,0x00,0x00,0x00,0x00,0x00,0x00,0x00,0x00,0x00,
 0x00,0x00,0x00,0x00,0x06,0xfd,0xbf,0xfe,0x01,0x00,0x00,0x00,0x00,0x00,0x00,
 0x00,0x00,0x00,0x00,0x00,0x00,0x00,0x00,0x00,0x00,0x0e,0x75,0x55,0xfd,0x03,
 0x00,0x00,0x00,0x00,0x00,0x00,0x00,0x00,0x00,0x00,0x00,0x00,0x00,0x00,0x00,
 0x00,0xf8,0x97,0xfa,0xf5,0x00,0x00,0x00,0x00,0x00,0x00,0x00,0x00,0x00,0x00,
 0x00,0x00,0x00,0x00,0x00,0x00,0x00,0x1c,0xa8,0x5e,0x17,0x00,0x00,0x00,0x00,
 0x00,0x00,0x00,0x00,0x00,0x00,0x00,0x00,0x00,0x00,0x00,0x00,0x00,0x04,0x00,
 0xf7,0x03,0x00,0x00,0x00,0x00,0x00,0x00,0x00,0x00,0x00,0x00,0x00,0x00,0x00,
 0x00,0x00,0x00,0x00,0x07,0x00,0x81,0x01,0x00,0x00,0x00,0x00,0x00,0x00,0x00,
 0x00,0x00,0x00,0x00,0x00,0x00,0x00,0x00,0x00,0x80,0x01,0x80,0xc1,0x00,0x00,
 0x00,0x00,0x00,0x00,0x00,0x00,0x00,0x00,0x00,0x00,0x00,0x00,0x00,0x00,0x20,
 0xd0,0x00,0xc0,0xc0,0x00,0x00,0x00,0x00,0x00,0x00,0x00,0x00,0x00,0x00,0x00,
 0x00,0x00,0x00,0x00,0x00,0xfc,0x3f,0x00,0x60,0x60,0x00,0x00,0x00,0x00,0x00,
 0x00,0x00,0x00,0x00,0x00,0x00,0x00,0x00,0x00,0x00,0xf8,0x0f,0x00,0x00,0x30,
 0x20,0x00,0x00,0x00,0x00,0x00,0x00,0x00,0x00,0x00,0x00,0x00,0x00,0x00,0x00,
 0x00,0x10,0x00,0x00,0x00,0x10,0x30,0x00,0x00,0x00,0x00,0x40,0xff,0xff,0x57,
 0x55,0x55,0x01,0x00,0x00,0x00,0x00,0x08,0x00,0x00,0x00,0x18,0x18,0x00,0x00,
 0x00,0x00,0xf8,0x05,0x00,0xaa,0xaa,0xaa,0xff,0xff,0xab,0x2a,0x00,0x18,0x00,
 0x00,0x00,0x0c,0x18,0x00,0x00,0x00,0x00,0x1e,0x00,0x00,0x00,0x00,0x00,0x00,
 0x00,0x54,0xf5,0xff,0x0f,0x00,0x00,0x00,0x04,0x0c,0x00,0x00,0x00,0x80,0x03,
 0x00,0x0f,0x00,0x00,0x80,0x01,0x00,0x00,0x00,0x00,0xf8,0xaa,0x2a,0x00,0x0e,
 0x06,0x00,0x00,0x00,0xc0,0x01,0x00,0x09,0x00,0x00,0x00,0x02,0x00,0x00,0x00,
 0x00,0x00,0xaa,0xaa,0xaf,0x70,0x02,0x00,0x00,0x00,0x60,0x7e,0x00,0x11,0x02,
 0x00,0x40,0x02,0x00,0x00,0x00,0x00,0x00,0x00,0x00,0xd0,0x8f,0x03,0x00,0x00,
 0x00,0x38,0x00,0x00,0x09,0xda,0xd6,0x06,0x22,0x09,0x00,0x00,0x00,0x00,0x00,
 0x00,0x00,0xf0,0x03,0x00,0x00,0x00,0x1e,0x00,0x00,0x01,0x40,0x42,0x40,0x22,
 0xd9,0xb6,0x49,0x12,0x81,0x0a,0x00,0x00,0x00,0x07,0x00,0x00,0x00,0x07,0x00,
 0x00,0x09,0x00,0x00,0x20,0x00,0x00,0x82,0xc8,0xb6,0x79,0xd5,0x05,0x00,0x00,
 0x02,0x00,0x00,0xc0,0x01,0x00,0x00,0x09,0x00,0x00,0x40,0x02,0x00,0x00,0x00,
 0x00,0x04,0x00,0xf4,0x01,0x00,0x03,0x00,0x00,0x60,0x00,0x00,0x00,0x0a,0x00,
 0x00,0x40,0x01,0xd6,0x02,0x00,0x00,0x04,0x00,0x00,0x01,0x00,0x03,0x00,0x00,
 0x60,0x00,0x00,0x00,0x00,0x00,0x00,0x00,0xc0,0x09,0xfd,0xff,0x57,0x6f,0x75,
 0x00,0x1f,0xf0,0x03,0x00,0x00,0x60,0x00,0x00,0x00,0x00,0x00,0x00,0x00,0x30,
 0x00,0x80,0xaa,0xfe,0xff,0xea,0xa0,0x05,0xfe,0x03,0x00,0x00,0xc0,0x01,0x00,
 0x00,0x00,0x00,0x00,0x00,0xf0,0xff,0xff,0xff,0xff,0x5f,0xbf,0x57,0xf1,0x2f,
 0x00,0x00,0x00,0x80,0x2f,0x00,0x00,0x00,0x00,0x00,0x00,0x00,0xff,0xff,0xff,
 0x3f,0x0c,0x00,0x40,0xff,0x01,0x00,0x00,0x00,0x00,0xfe,0x05,0x00,0x00,0x00,
 0x00,0x00,0x00,0x40,0xfb,0xff,0xff,0x03,0x80,0xfe,0x07,0x00,0x00,0x00,0x00,
 0x00,0xe0,0xff,0xab,0xaa,0x0a,0x00,0x00,0x00,0x00,0x00,0x00,0x00,0x80,0xfa,
 0x5f,0x00,0x00,0x00,0x00,0x00,0x00,0x00,0xfa,0xff,0xff,0xff,0xff,0xff,0xff,
 0xbf,0x57,0x55,0x55,0xff,0xbf,0x00,0x00,0x00,0x00,0x00,0x00,0x00,0x00,0x00,
 0x54,0x55,0x55,0xf5,0xff,0xff,0xff,0xff,0xff,0xff,0xff,0x02,0x00,0x00,0x00,
 0x00,0x00,0x00,0x00,0x00,0x00,0x00,0x00,0x00,0x00,0x00,0x00,0x00,0x00,0xaa,
 0x0a,0x00,0x00,0x00,0x00,0x00,0x00,0x00,0x00,0x00,0x00,0x00,0x00,0x00,0x00,
 0x00,0x00,0x00,0x00,0x00,0x00,0x00,0x00,0x00,0x00,0x00,0x00,0x00,0x00,0x00,
 0x00,0x00,0x00,0x00,0x00,0x00,0x00,0x00,0x00,0x00,0x00,0x00,0x00,0x00,0x00,
 0x00,0x00,0x00,0x00,0x00,0x00,0x00,0x00,0x00,0x00,0x00,0x00,0x00,0x00,0x00,
 0x00,0x00,0x00,0x00,0x00,0x00,0x00,0x00,0x00,0x00,0x00,0x00,0x00,0x00,0x00,
 0x00,0x00,0x00,0x00,0x00,0x00,0x00,0x00,0x00,0x00,0x00,0x00,0x00,0x00,0x00,
 0x00,0x00,0x00,0x00,0x00,0x00,0x00,0x00,0x00,0x00,0x00,0x00,0x00,0x00,0x00,
 0x00,0x00,0x00,0x00,0x00,0x00,0x00,0x00,0x00,0x00,0x00,0x00,0x00,0x00,0x00,
 0x00,0x00,0x00,0x00,0x00,0x00,0x00,0x00,0x00,0x00,0x00,0x00,0x00,0x00,0x00,
 0x00,0x00,0x00,0x00,0x00,0x00,0x00,0x00,0x00,0x00,0x00,0x00,0x00,0x00,0x00,
 0x00,0x00,0x00,0x00,0x00,0x00,0x00,0x00,0x00,0x00,0x00,0x00,0x00,0x00,0x00,
 0x00,0x00,0x00,0x00,0x00,0x00,0x00,0x00,0x00,0x00,0x00,0x00,0x00,0x00,0x00,
 0x00,0x00,0x00,0x00,0x00,0x00,0x00,0x00,0x00,0x00,0x00,0x00,0x00,0x00,0x00,
 0x00,0x00,0x00,0x00,0x00,0x00,0x00,0x00,0x00,0x00,0x00,0x00,0x00,0x00,0x00,
 0x00,0x00,0x00,0x00,0x00,0x00,0x00,0x00,0x00,0x00,0x00,0x00,0x00,0x00,0x00,
 0x00,0x00,0x00,0x00,0x00,0x00,0x00,0x00,0x00,0x00,0x00,0x00,0x00,0x00,0x00};
