#define noname_width 165
#define noname_height 50
static char noname_bits[] = {
 0x00,0x00,0x00,0x00,0x00,0x00,0x00,0x00,0x00,0x00,0x00,0x00,0x00,0x00,0x00,
 0x00,0x80,0xfe,0xff,0x2f,0x00,0x00,0x00,0x00,0x00,0x00,0x00,0x00,0x00,0x00,
 0x00,0x00,0x00,0x00,0x00,0x00,0xf4,0xfb,0xff,0xff,0x05,0x00,0x00,0x00,0x00,
 0x00,0x00,0x00,0x00,0x00,0x00,0x00,0x00,0x00,0x00,0x00,0x00,0x56,0xff,0xff,
 0xff,0x01,0x00,0x00,0x00,0x00,0x00,0x00,0x00,0x00,0x00,0x00,0x00,0x00,0x00,
 0x00,0x00,0x00,0x06,0xfe,0xff,0xd7,0x03,0x00,0x00,0x00,0x00,0x00,0x00,0x00,
 0x00,0x00,0x00,0x00,0x00,0x00,0x00,0x00,0x00,0x7c,0xa0,0x2a,0xfa,0x01,0x00,
 0x00,0x00,0x00,0x00,0x00,0x00,0x00,0x00,0x00,0x00,0x00,0x00,0x00,0x00,0x00,
 0xe0,0xff,0xff,0x1f,0x00,0x00,0x00,0x00,0x00,0x00,0x00,0x00,0x00,0x00,0x00,
 0x00,0x00,0x00,0x00,0x00,0x00,0x60,0x40,0x96,0x03,0x00,0x00,0x00,0x00,0x00,
 0x00,0x00,0x00,0x00,0x00,0x00,0x00,0x00,0x00,0x00,0x00,0x00,0x38,0x00,0x83,
 0x01,0x00,0x00,0x00,0x00,0x00,0x00,0x00,0x00,0x00,0x00,0x00,0x00,0x00,0x00,
 0x00,0x00,0x00,0x1c,0x00,0xc3,0x00,0x00,0x00,0x00,0x00,0x00,0x00,0x00,0x00,
 0x00,0x00,0x00,0x00,0x00,0x00,0x00,0x00,0x00,0x06,0x80,0x61,0x00,0x00,0x00,
 0x00,0x00,0x00,0xd0,0xff,0x57,0x05,0x00,0x00,0x00,0x00,0x00,0x00,0x00,0x0a,
 0x03,0xc0,0x30,0x00,0x00,0x00,0x80,0x5f,0xa5,0x7f,0x55,0xfd,0xff,0xff,0x57,
 0x55,0x05,0x00,0x00,0x80,0xff,0x01,0x60,0x30,0x00,0x00,0x00,0x00,0xaa,0xff,
 0x02,0x00,0x00,0x00,0x40,0xa9,0xea,0xff,0xff,0xbf,0xf2,0xa0,0x00,0x30,0x18,
 0x00,0x00,0x00,0x00,0x00,0x3e,0x00,0x00,0xa8,0x02,0x00,0x00,0x00,0x00,0x80,
 0xaa,0x7f,0x05,0x00,0x18,0x0c,0x00,0x00,0x00,0x00,0x80,0x1f,0x02,0xf0,0xdf,
 0x7f,0x01,0x00,0x00,0x00,0x00,0x00,0xc0,0x7e,0x01,0x08,0x06,0x00,0x00,0x00,
 0x00,0xe0,0x3f,0x0f,0x7e,0x01,0xa0,0x3f,0x00,0x00,0x00,0x00,0x00,0x00,0xa0,
 0x5f,0x2c,0x03,0x00,0x00,0x00,0x00,0x78,0x05,0x51,0xbf,0x00,0x00,0xe8,0x03,
 0x00,0x00,0x00,0x00,0x00,0x00,0xf0,0xff,0x01,0x00,0x00,0x00,0x00,0x1e,0x08,
 0x99,0x5d,0x2f,0x00,0x00,0x1e,0x00,0x00,0x00,0x00,0x00,0x00,0x00,0xfc,0x0b,
 0x00,0x00,0x00,0xc0,0x07,0x00,0x09,0x1f,0xb2,0x00,0xd0,0xfe,0x00,0x00,0x55,
 0x00,0x00,0x00,0x00,0xa0,0x1f,0x00,0x00,0x00,0xf0,0x01,0x00,0x09,0xf0,0xef,
 0x17,0xac,0xea,0xbf,0x7a,0x55,0x3f,0x00,0x00,0x00,0x00,0x30,0x00,0x00,0x00,
 0x78,0x00,0x00,0x09,0x80,0xff,0xff,0x5f,0xf5,0xa0,0xfe,0x0a,0xc0,0x03,0x00,
 0x00,0x00,0x60,0x00,0x00,0x00,0xc0,0x03,0x00,0x0f,0x00,0xf8,0xff,0xff,0xff,
 0x05,0x00,0xf5,0x0b,0x1c,0x00,0x00,0x00,0x60,0x00,0x00,0x00,0x80,0x07,0x00,
 0x00,0x00,0x40,0xff,0xff,0xff,0x7f,0x55,0x05,0xf4,0x73,0x00,0x00,0x00,0x30,
 0x00,0x00,0x00,0x00,0x1e,0x00,0x00,0x00,0x00,0xa8,0xff,0xff,0xff,0xff,0xaf,
 0xff,0x7f,0x00,0x00,0x80,0x1f,0x00,0x00,0x00,0x00,0x7c,0x00,0x00,0x00,0x00,
 0x00,0x00,0xd5,0xff,0x0f,0x00,0x00,0x14,0x00,0x00,0xfa,0x1f,0x00,0x00,0x00,
 0x00,0xf0,0x03,0x00,0x00,0x00,0x00,0x00,0x00,0x00,0x00,0x00,0x00,0x00,0x00,
 0xe8,0x7f,0x00,0x00,0x00,0x00,0x00,0xc0,0x5f,0x00,0x00,0x00,0xa0,0xaa,0xaa,
 0xaa,0x02,0x00,0x00,0x00,0xea,0xff,0x0b,0x00,0x00,0x00,0x00,0x00,0x00,0xfe,
 0x2f,0x00,0xaa,0xff,0xff,0xff,0xff,0xff,0xff,0xeb,0xff,0xff,0x2f,0x00,0x00,
 0x00,0x00,0x00,0x00,0x00,0xf8,0xff,0xff,0xff,0xbf,0xaa,0xaa,0xff,0xff,0xff,
 0xff,0xff,0x0a,0x00,0x00,0x00,0x00,0x00,0x00,0x00,0x00,0x00,0xa2,0xaa,0xaa,
 0x00,0x00,0x00,0x00,0x00,0x00,0x00,0x00,0x00,0x00,0x00,0x00,0x00,0x00,0x00,
 0x00,0x00,0x00,0x00,0x00,0x00,0x00,0x00,0x00,0x00,0x00,0x00,0x00,0x00,0x00,
 0x00,0x00,0x00,0x00,0x00,0x00,0x00,0x00,0x00,0x00,0x00,0x00,0x00,0x00,0x00,
 0x00,0x00,0x00,0x00,0x00,0x00,0x00,0x00,0x00,0x00,0x00,0x00,0x00,0x00,0x00,
 0x00,0x00,0x00,0x00,0x00,0x00,0x00,0x00,0x00,0x00,0x00,0x00,0x00,0x00,0x00,
 0x00,0x00,0x00,0x00,0x00,0x00,0x00,0x00,0x00,0x00,0x00,0x00,0x00,0x00,0x00,
 0x00,0x00,0x00,0x00,0x00,0x00,0x00,0x00,0x00,0x00,0x00,0x00,0x00,0x00,0x00,
 0x00,0x00,0x00,0x00,0x00,0x00,0x00,0x00,0x00,0x00,0x00,0x00,0x00,0x00,0x00,
 0x00,0x00,0x00,0x00,0x00,0x00,0x00,0x00,0x00,0x00,0x00,0x00,0x00,0x00,0x00,
 0x00,0x00,0x00,0x00,0x00,0x00,0x00,0x00,0x00,0x00,0x00,0x00,0x00,0x00,0x00,
 0x00,0x00,0x00,0x00,0x00,0x00,0x00,0x00,0x00,0x00,0x00,0x00,0x00,0x00,0x00,
 0x00,0x00,0x00,0x00,0x00,0x00,0x00,0x00,0x00,0x00,0x00,0x00,0x00,0x00,0x00,
 0x00,0x00,0x00,0x00,0x00,0x00,0x00,0x00,0x00,0x00,0x00,0x00,0x00,0x00,0x00,
 0x00,0x00,0x00,0x00,0x00,0x00,0x00,0x00,0x00,0x00,0x00,0x00,0x00,0x00,0x00,
 0x00,0x00,0x00,0x00,0x00,0x00,0x00,0x00,0x00,0x00,0x00,0x00,0x00,0x00,0x00,
 0x00,0x00,0x00,0x00,0x00,0x00,0x00,0x00,0x00,0x00,0x00,0x00,0x00,0x00,0x00,
 0x00,0x00,0x00,0x00,0x00,0x00,0x00,0x00,0x00,0x00,0x00,0x00,0x00,0x00,0x00,
 0x00,0x00,0x00,0x00,0x00,0x00,0x00,0x00,0x00,0x00,0x00,0x00,0x00,0x00,0x00,
 0x00,0x00,0x00,0x00,0x00,0x00,0x00,0x00,0x00,0x00,0x00,0x00,0x00,0x00,0x00,
 0x00,0x00,0x00,0x00,0x00,0x00,0x00,0x00,0x00,0x00,0x00,0x00,0x00,0x00,0x00,
 0x00,0x00,0x00,0x00,0x00,0x00,0x00,0x00,0x00,0x00,0x00,0x00,0x00,0x00,0x00,
 0x00,0x00,0x00,0x00,0x00,0x00,0x00,0x00,0x00,0x00,0x00,0x00,0x00,0x00,0x00,
 0x00,0x00,0x00,0x00,0x00,0x00,0x00,0x00,0x00,0x00,0x00,0x00,0x00,0x00,0x00,
 0x00,0x00,0x00,0x00,0x00,0x00,0x00,0x00,0x00,0x00,0x00,0x00,0x00,0x00,0x00,
 0x00,0x00,0x00,0x00,0x00,0x00,0x00,0x00,0x00,0x00,0x00,0x00,0x00,0x00,0x00,
 0x00,0x00,0x00,0x00,0x00,0x00,0x00,0x00,0x00,0x00,0x00,0x00,0x00,0x00,0x00,
 0x00,0x00,0x00,0x00,0x00,0x00,0x00,0x00,0x00,0x00,0x00,0x00,0x00,0x00,0x00,
 0x00,0x00,0x00,0x00,0x00,0x00,0x00,0x00,0x00,0x00,0x00,0x00,0x00,0x00,0x00,
 0x00,0x00,0x00,0x00,0x00,0x00,0x00,0x00,0x00,0x00,0x00,0x00,0x00,0x00,0x00};
